<svg version="1.1" id="Layer_1" xmlns="http://www.w3.org/2000/svg" xmlns:xlink="http://www.w3.org/1999/xlink" x="0px" y="0px"
	 width="100%" viewBox="0 0 1080 1080" enable-background="new 0 0 1080 1080" xml:space="preserve">
<path fill="#FFFFFF" opacity="1.000000" stroke="none" 
	d="
M710.000000,1081.000000 
	C473.360596,1081.000000 237.221176,1081.000000 1.040879,1081.000000 
	C1.040879,721.068787 1.040879,361.137604 1.040879,1.103192 
	C360.889618,1.103192 720.779297,1.103192 1080.834473,1.103192 
	C1080.834473,360.999939 1080.834473,720.999939 1080.834473,1081.000000 
	C957.470459,1081.000000 833.985229,1081.000000 710.000000,1081.000000 
M277.988617,848.995056 
	C277.988617,848.995056 277.948639,849.031921 277.912201,849.738281 
	C281.374054,851.808960 284.634125,854.419373 288.350708,855.808777 
	C292.639954,857.412170 297.331848,857.938721 301.980774,859.686951 
	C300.566956,861.993591 299.454926,864.601257 297.596344,866.464172 
	C296.812164,867.250122 294.394653,866.709534 292.830719,866.322632 
	C291.488770,865.990723 290.229675,865.125000 289.071655,864.301636 
	C287.790192,863.390564 286.369354,862.446228 285.561249,861.167480 
	C284.852844,860.046448 284.908600,858.442566 284.590790,856.874451 
	C277.950104,857.352417 271.643524,857.693359 265.372498,858.365356 
	C264.286102,858.481812 262.633514,859.881165 262.466034,860.890869 
	C261.659393,865.753418 261.271942,870.685486 260.734863,875.600708 
	C263.849701,876.520691 266.390533,877.271118 268.862518,878.720154 
	C267.225494,882.781006 270.413391,883.107788 272.890717,883.693970 
	C287.516907,887.155151 302.136627,886.170349 316.760468,883.541016 
	C327.783600,881.559021 337.178314,877.086548 343.353210,867.802795 
	C343.353210,869.681641 343.353210,871.560425 343.353210,873.489075 
	C346.292877,873.340637 348.881317,873.209961 351.395477,873.969482 
	C351.309723,875.880188 351.223999,877.790833 351.108124,880.372986 
	C362.705109,879.455444 373.668640,878.587952 384.549133,877.727051 
	C386.016815,868.044861 387.399475,858.923523 389.144623,850.426514 
	C392.182678,855.359741 395.377686,860.205505 398.196381,865.261047 
	C399.742157,868.033447 401.601471,869.543640 405.017365,869.766113 
	C406.917267,874.856873 410.152893,877.137817 415.743622,875.290955 
	C417.418732,874.737610 419.373230,875.062073 421.193665,874.910950 
	C429.061188,874.258240 436.926422,873.578247 445.807587,872.821655 
	C436.141663,858.270203 427.002991,844.512573 417.684631,830.484314 
	C427.752380,820.783447 437.610626,811.284424 448.504730,800.787231 
	C442.319153,801.209412 437.595245,801.531860 433.146393,801.245483 
	C435.384003,799.154053 437.621582,797.062622 439.859192,794.971252 
	C433.962006,794.464966 428.664246,794.494690 423.499451,795.338379 
	C420.599243,795.812195 417.433960,797.064087 415.227936,798.948547 
	C407.790497,805.302368 400.729095,812.096375 393.176788,817.906799 
	C394.273071,808.216064 395.322723,798.519775 396.479950,788.836304 
	C397.451416,780.707336 398.548248,772.593384 399.654999,763.962341 
	C396.271881,764.317078 393.659912,764.590942 390.962738,764.073059 
	C391.110626,761.980835 391.258545,759.888550 391.435547,757.384399 
	C380.023682,758.290771 368.986511,759.167419 357.547150,760.075989 
	C353.244537,793.332031 348.968842,826.379883 344.265533,858.729309 
	C343.780945,856.657227 343.537537,854.489319 342.760254,852.533569 
	C341.265259,848.771790 339.823425,844.807312 334.994019,843.986267 
	C334.994019,843.986267 335.046661,843.982849 335.068054,843.387695 
	C334.740509,843.170166 334.412994,842.952637 333.674774,842.229858 
	C330.128998,836.999512 324.856750,834.456177 319.008606,832.413269 
	C319.008606,832.413269 318.998444,832.019531 319.890656,831.944336 
	C325.327271,831.551880 330.789337,831.353760 336.184631,830.646118 
	C337.764679,830.438843 340.165955,829.012024 340.451691,827.750244 
	C341.526611,823.004150 341.883881,818.095520 342.557892,812.876465 
	C339.591827,812.168701 337.052002,811.562622 334.458405,810.151611 
	C335.327637,807.409607 334.529541,805.607666 331.539215,805.155823 
	C325.640900,804.264587 319.754211,802.858337 313.830170,802.665771 
	C300.915619,802.245911 288.292542,803.842407 276.844666,810.617737 
	C260.327454,820.393372 262.503174,842.549805 276.975098,848.673096 
	C277.312958,848.798523 277.650818,848.923950 277.988617,848.995056 
M727.917175,813.048950 
	C727.917175,813.048950 727.858032,813.105164 727.936462,813.795227 
	C729.788208,815.365356 731.401489,817.680420 733.536987,818.363892 
	C739.594116,820.302368 745.864685,821.573730 752.288391,823.877380 
	C752.277222,828.623718 749.739563,831.720032 745.218872,831.777222 
	C742.564636,831.810852 739.375610,830.281921 737.379822,828.429443 
	C735.858337,827.017273 735.834717,823.991272 735.031311,821.303833 
	C727.794556,821.926941 720.480652,822.556763 713.262878,823.178284 
	C712.782227,826.766296 712.317871,829.712219 712.004395,832.674072 
	C711.174133,840.517883 711.200134,840.520630 719.116394,843.001099 
	C718.397217,846.160156 719.904053,847.418640 722.881714,848.039734 
	C740.635315,851.743103 758.278809,851.100891 775.489563,845.672180 
	C780.625671,844.052063 785.615723,840.547241 789.517334,836.726135 
	C798.079224,828.341003 794.135742,809.669678 785.011536,807.959412 
	C785.011536,807.959412 785.085266,807.973267 785.077881,807.463562 
	C784.795044,807.295227 784.512268,807.126831 783.860535,806.382263 
	C780.553894,801.711792 775.972229,799.029907 770.843262,797.027527 
	C774.694153,796.519836 778.549011,796.040527 782.395081,795.498718 
	C790.974365,794.290161 790.972595,794.277466 792.012024,785.380676 
	C792.956909,777.293152 792.956909,777.293152 784.966858,774.307800 
	C785.730713,771.349304 784.245300,770.201355 781.551086,769.510498 
	C771.433289,766.915771 761.237915,766.376953 750.892029,767.715820 
	C741.900818,768.879395 733.290466,771.027771 725.661804,776.231995 
	C711.035889,786.209778 713.722778,807.385864 727.072021,812.809387 
	C727.367371,812.912781 727.662781,813.016113 727.917175,813.048950 
M180.069962,885.893188 
	C180.069962,885.893188 180.106110,885.809021 180.299927,886.477051 
	C184.060577,888.676636 187.576538,891.946228 191.628296,892.872681 
	C203.242416,895.528320 212.932312,891.004211 221.994919,882.963440 
	C223.629623,882.982361 225.264313,883.001343 227.039673,883.766541 
	C227.880249,889.198547 230.783325,890.526672 236.117676,889.343994 
	C240.930389,888.277039 246.032806,887.995972 250.975525,888.188477 
	C255.570984,888.367432 256.509247,886.112854 256.919342,882.351318 
	C257.709900,875.099304 259.053894,867.901367 259.674469,860.638794 
	C260.391846,852.243164 261.074066,843.787231 260.825836,835.385498 
	C260.646729,829.323059 258.267731,823.720764 251.970383,821.000122 
	C251.970383,821.000122 251.971481,821.071838 251.790756,820.599609 
	C251.498062,820.453979 251.205368,820.308350 250.418091,819.701538 
	C247.158569,814.901917 242.554123,812.036194 236.967117,810.939819 
	C219.800369,807.571167 203.190094,809.922241 187.144867,816.484375 
	C178.241623,820.125488 175.607376,825.887817 177.758453,835.739319 
	C180.226639,835.566101 182.708115,835.391907 185.147110,836.087280 
	C185.147110,837.987366 185.147110,839.887390 185.147110,841.783936 
	C188.485764,842.054871 191.382339,842.289917 193.476883,842.780518 
	C188.701599,844.614319 183.554047,845.821106 179.218292,848.395203 
	C164.009933,857.424500 164.193222,875.959473 179.448166,885.504578 
	C179.631882,885.732971 179.869659,885.861938 180.069962,885.893188 
M875.976807,828.008179 
	C875.976807,828.008179 875.916016,828.045654 876.021729,828.721497 
	C879.807556,831.018616 883.320557,834.372925 887.425720,835.432129 
	C906.426758,840.334534 924.658936,837.054443 942.087524,828.624146 
	C943.513611,827.934448 944.964783,826.106506 945.299011,824.567383 
	C946.412170,819.442322 947.021240,814.207825 947.816345,809.062195 
	C944.615479,809.062195 941.831421,809.062195 938.974426,808.238892 
	C939.237427,806.311218 939.500366,804.383545 939.840149,801.892273 
	C935.413025,802.161804 931.216675,802.417297 927.021484,802.165955 
	C927.018677,801.828369 927.015930,801.490784 927.897766,801.015198 
	C932.028320,800.670166 936.153076,800.204224 940.290588,800.004822 
	C949.578613,799.557129 950.752686,798.515625 951.974487,789.079346 
	C952.166077,787.599487 952.434998,786.128479 952.585938,784.644958 
	C953.481628,775.838623 949.448059,767.929504 943.001282,765.962524 
	C943.001282,765.962524 943.076477,765.966248 943.107727,765.404785 
	C942.793335,765.214539 942.478882,765.024292 941.778809,764.289978 
	C937.525085,758.245056 931.263000,755.189453 924.313477,755.224915 
	C913.934692,755.278015 903.378967,755.634888 893.234924,757.599426 
	C881.224976,759.925171 870.953369,766.079773 864.186890,776.579407 
	C864.318665,773.879150 864.450378,771.178894 864.599609,768.120544 
	C861.605713,768.120544 858.880310,768.120544 856.091797,767.323486 
	C856.316711,765.447998 856.541565,763.572571 856.802979,761.391846 
	C855.424316,761.230896 854.213623,761.089539 853.024109,760.126831 
	C853.628113,755.636108 854.232117,751.145386 854.924194,746.000244 
	C851.587402,746.313110 848.864136,746.568420 846.075439,746.041443 
	C846.304077,743.955872 846.532715,741.870300 846.797180,739.457764 
	C842.769287,739.698425 839.146606,740.160339 835.538574,740.065613 
	C831.438843,739.958069 828.852600,741.577515 826.654602,745.058655 
	C820.963379,754.072388 812.998596,760.628479 802.742004,763.610962 
	C797.850281,765.033447 796.020630,767.616760 796.070801,772.261963 
	C796.086304,773.695740 796.073242,775.129822 796.073242,776.950439 
	C798.978149,776.766296 801.599182,776.600159 804.153748,777.311829 
	C804.027649,779.332275 803.901550,781.352722 803.759338,783.630798 
	C805.091370,783.692444 806.173706,783.742554 807.237244,784.692261 
	C806.028564,795.017944 804.544800,805.321167 803.696167,815.676331 
	C802.985291,824.350220 804.532532,832.307800 814.253662,836.636292 
	C817.667847,838.756287 821.035767,842.576050 824.505005,842.670349 
	C834.051575,842.929871 843.644714,841.677063 853.205872,840.863464 
	C854.107239,840.786743 855.497681,839.703003 855.659790,838.887695 
	C856.287781,835.730042 856.510437,832.491760 856.901184,829.136658 
	C853.606201,828.982666 850.961243,828.859070 848.295593,827.992554 
	C848.524170,826.110413 848.752747,824.228271 848.993469,822.245789 
	C847.398193,822.091675 846.279358,821.983582 845.195740,821.076294 
	C846.466553,811.026672 847.874146,800.991943 848.970276,790.923279 
	C850.100220,780.545410 849.966736,780.525391 859.990784,779.213379 
	C861.144165,779.062439 862.311157,779.015076 863.214172,779.671326 
	C862.657104,781.229065 861.995850,782.758240 861.559082,784.349060 
	C857.239380,800.083557 859.066833,819.143677 875.048584,827.711426 
	C875.361389,827.833862 875.674194,827.956360 875.976807,828.008179 
M677.870972,848.838318 
	C678.472290,852.977478 680.540771,854.650696 684.966003,854.062500 
	C690.882568,853.276062 696.883240,853.103638 702.852112,852.739075 
	C705.609253,852.570679 706.960449,851.478699 707.096130,848.467468 
	C707.259827,844.836426 708.129028,841.243530 708.506714,837.614685 
	C709.691162,826.235596 711.334961,814.866150 711.726562,803.456055 
	C711.987427,795.857178 709.820251,788.526184 701.226013,784.546387 
	C697.596680,779.095886 692.320190,776.037842 686.042480,775.089783 
	C667.141846,772.235229 649.032776,774.856323 632.008423,783.792969 
	C630.830017,784.411560 629.392395,785.632324 629.171448,786.783386 
	C628.348877,791.070190 627.984009,795.444763 627.423767,799.977600 
	C630.678528,799.977600 633.316833,799.977600 635.900757,800.769165 
	C635.667419,802.727722 635.434082,804.686340 635.228394,806.412720 
	C638.050476,806.899719 640.214600,807.273132 641.593872,807.885986 
	C638.493042,809.028503 635.243164,809.879028 632.320923,811.371216 
	C625.088379,815.064392 619.445007,820.070007 618.871582,829.002258 
	C618.269531,838.381287 621.687561,845.467407 630.371887,850.538208 
	C634.462524,855.776855 639.971497,857.921936 646.471497,858.068848 
	C656.562744,858.296753 664.789551,854.115906 672.799133,847.501221 
	C674.348328,847.454956 675.897522,847.408691 677.535645,847.733215 
	C677.535645,847.733215 677.753906,848.044006 677.870972,848.838318 
M1003.601746,775.890381 
	C1004.205566,779.104980 1004.809448,782.319580 1005.442505,785.689941 
	C1007.775757,785.567017 1009.889893,785.455566 1012.086670,786.078674 
	C1012.549927,788.141174 1013.013123,790.203613 1013.519409,792.457764 
	C1018.482422,792.084045 1023.245361,791.679810 1028.015015,791.384827 
	C1030.532593,791.229126 1031.711304,790.297119 1031.988281,787.512207 
	C1032.806519,779.279968 1034.021240,771.087646 1035.041260,762.874756 
	C1036.020874,754.985229 1035.856567,754.802856 1027.734619,753.020325 
	C1028.775513,747.940735 1024.709106,747.629517 1021.689209,747.176392 
	C1011.573914,745.658691 1002.684265,748.018005 995.478149,755.878174 
	C990.430725,761.383850 988.963257,760.874878 986.806885,753.815491 
	C986.524597,752.891357 986.074646,752.018433 985.564514,750.789978 
	C976.622742,751.534302 967.757690,752.272278 958.735413,753.023315 
	C955.563171,777.490784 952.461365,801.414734 949.387268,825.124878 
	C952.778748,825.124878 955.422485,825.124878 958.061096,825.926331 
	C957.923462,827.847656 957.785828,829.768921 957.599365,832.371216 
	C967.571899,831.568542 977.115845,830.560852 986.685425,830.146301 
	C990.594666,829.977051 991.617004,828.583984 992.045837,824.910400 
	C993.718079,810.584900 995.846924,796.313354 997.645569,782.001587 
	C998.097961,778.402344 999.815796,776.212891 1003.601746,775.890381 
M93.122223,800.935852 
	C92.960587,802.857666 92.798958,804.779480 92.586662,807.303650 
	C98.604988,806.876221 104.203110,806.478699 109.859222,806.883240 
	C106.096275,835.393433 102.333328,863.903564 98.547295,892.588684 
	C101.887985,892.588684 104.498749,892.588684 107.051338,893.447388 
	C106.844833,895.382507 106.638329,897.317566 106.368713,899.844177 
	C117.260620,898.926575 127.776672,897.877502 138.317795,897.249084 
	C141.607529,897.052917 142.514923,895.649170 142.881699,892.778503 
	C146.561508,863.978760 150.354584,835.193420 153.997574,806.389099 
	C154.394501,803.250671 155.801804,802.153564 158.808762,802.025269 
	C165.112122,801.756287 171.411682,801.313782 177.696152,800.755310 
	C179.015686,800.638062 181.195724,799.932190 181.383942,799.125366 
	C182.219574,795.543213 182.474716,791.825684 182.952438,788.057434 
	C179.680115,788.057434 177.198044,788.057434 174.686783,787.135986 
	C174.813705,785.211853 174.940628,783.287659 175.107224,780.762146 
	C165.366699,781.531311 156.134521,782.273193 146.900146,782.986816 
	C128.180038,784.433533 109.456291,785.834778 90.742592,787.359558 
	C89.230438,787.482727 86.715424,788.136353 86.492249,789.009949 
	C85.546509,792.711792 85.290703,796.589905 84.766953,800.522278 
	C88.184860,800.364319 90.666756,800.249634 93.122223,800.935852 
M553.261230,798.509155 
	C551.012634,785.378540 548.764038,772.247864 546.497864,759.014282 
	C544.061401,759.014282 542.091919,759.014282 539.906860,758.229309 
	C539.447021,756.184204 538.987122,754.139099 538.465027,751.817139 
	C524.282654,752.954285 510.423645,754.065491 496.306091,755.197388 
	C491.608978,791.012817 486.960388,826.458313 482.287262,862.090942 
	C485.634369,862.090942 488.274414,862.090942 490.899963,862.882935 
	C490.661926,864.778076 490.423859,866.673218 490.111206,869.162231 
	C494.085083,868.882385 497.514404,868.453064 500.943817,868.452087 
	C504.391754,868.451172 505.391815,866.556702 505.725250,863.592285 
	C506.408752,857.515259 507.117554,851.437012 508.018616,845.389526 
	C509.500000,835.447083 511.142517,825.528625 512.881409,816.481506 
	C515.047302,828.647278 517.484009,840.773865 519.250488,852.997314 
	C519.995239,858.150635 522.039124,860.131165 527.125916,859.913513 
	C527.572693,861.818054 528.019531,863.722595 528.586548,866.139526 
	C534.451233,865.725891 540.182922,865.077087 545.921814,865.005798 
	C549.540833,864.960754 551.450928,863.795776 552.969177,860.344604 
	C559.087158,846.438660 565.586731,832.700623 571.977661,819.756714 
	C570.465271,831.652161 568.952881,843.547607 567.403870,855.731445 
	C570.691772,855.532043 573.309570,855.373291 575.915283,855.974243 
	C575.665649,858.030945 575.416016,860.087646 575.115295,862.565613 
	C586.018005,861.679321 596.258362,860.507019 606.526306,860.167236 
	C611.099182,860.015930 612.393433,858.374573 612.925781,854.193176 
	C616.389587,826.987244 620.092224,799.811768 623.676208,772.620972 
	C624.554993,765.954163 625.282898,759.267456 626.118408,752.268921 
	C622.826416,752.541870 620.362122,752.746216 617.804993,752.037109 
	C617.891174,750.099609 617.977295,748.162170 618.092163,745.579956 
	C604.933777,746.610168 592.213684,747.688843 579.478455,748.540771 
	C576.555237,748.736389 575.168762,749.977600 574.050781,752.578430 
	C567.357788,768.149414 560.495667,783.647766 553.261230,798.509155 
M560.507690,230.005554 
	C550.893982,230.793396 541.129822,230.765961 531.692017,232.507263 
	C485.772156,240.979630 448.235291,264.361847 418.460480,299.703674 
	C377.550720,348.262390 359.535583,404.730865 363.923706,468.134399 
	C366.157227,500.406158 375.678101,530.444031 392.906891,557.927795 
	C427.118134,612.502258 488.246124,643.432312 556.174683,630.773010 
	C602.025452,622.228149 639.331299,598.328125 668.948914,562.808594 
	C708.039124,515.928772 725.963318,461.615540 723.104370,400.579132 
	C721.721313,371.052612 714.061157,343.187988 700.319275,317.008972 
	C699.598206,315.635223 698.724182,314.341736 697.776733,312.771210 
	C696.864441,313.757812 696.367554,314.206055 695.975098,314.732208 
	C653.968567,371.059113 611.575928,427.104858 570.198730,483.890503 
	C556.922974,502.110046 546.489502,522.385559 534.387573,541.487244 
	C531.710327,545.713074 528.028015,549.821045 523.851074,552.478577 
	C512.174194,559.908020 498.903992,560.372253 485.706116,558.503601 
	C476.602997,557.214722 468.447021,553.753235 464.876343,543.836060 
	C462.061951,536.019226 458.388580,528.513977 455.505981,520.718994 
	C446.469727,496.283691 439.485077,471.409821 438.770264,445.071289 
	C438.533203,436.336029 442.053070,430.051331 449.146484,426.035095 
	C456.492950,421.875519 464.203125,418.171906 472.112427,415.232697 
	C487.348419,409.570801 492.097870,412.260468 497.218903,427.852203 
	C499.914886,436.060455 502.603546,444.290344 505.808777,452.305206 
	C507.882538,457.490784 510.827148,457.577026 514.104431,453.146393 
	C514.795288,452.212372 515.330383,451.164642 515.965149,450.187408 
	C526.756042,433.574371 537.164734,416.696716 548.430054,400.411743 
	C568.837097,370.911774 591.154968,343.020386 617.728821,318.637054 
	C636.008118,301.864532 656.205200,291.406799 681.726379,294.163147 
	C682.721252,294.270599 683.767639,293.902008 685.658813,293.630524 
	C653.477661,253.057434 612.732178,231.322891 560.507690,230.005554 
M527.145020,711.716431 
	C539.922058,710.718323 552.700012,709.731689 565.475952,708.719604 
	C593.516113,706.498230 621.552063,704.223877 649.595703,702.047119 
	C673.161438,700.217957 696.738342,698.532715 720.305237,696.717712 
	C749.180237,694.494019 778.050537,692.207458 806.921875,689.936279 
	C821.688660,688.774536 836.465759,687.719971 851.213440,686.350220 
	C857.691589,685.748535 858.571289,684.091858 856.681702,677.819824 
	C837.616394,614.540771 802.477478,562.167236 750.396729,521.309082 
	C744.453918,516.646851 742.269043,517.195679 739.208679,524.096680 
	C719.290771,569.011841 689.677734,606.075134 648.960449,633.725220 
	C604.715515,663.770813 556.122009,677.670837 502.394989,671.162720 
	C471.926910,667.471985 443.946289,657.132690 418.519409,640.019165 
	C387.527130,619.159851 364.493866,591.392761 347.971741,558.031006 
	C344.601105,551.224976 342.161133,550.967712 337.015472,556.599976 
	C304.436096,592.260803 281.470886,633.371643 268.463013,679.828003 
	C264.352112,694.509705 262.130188,709.728638 259.242310,724.739929 
	C258.225677,730.024231 260.298370,732.032471 265.837341,731.910522 
	C267.002625,731.884949 268.167603,731.795166 269.330109,731.702332 
	C297.036530,729.489197 324.738861,727.223816 352.449860,725.069397 
	C376.015686,723.237183 399.594025,721.566040 423.162109,719.762146 
	C457.515778,717.132874 491.865234,714.448547 527.145020,711.716431 
M228.823944,506.326996 
	C233.107117,500.799377 237.258926,495.163849 241.695480,489.762177 
	C264.651550,461.812408 290.671875,437.065796 320.098907,416.030334 
	C324.912903,412.589111 326.877472,408.559845 328.040894,403.083527 
	C330.559387,391.228607 332.801392,379.176300 336.882172,367.825134 
	C342.660583,351.751740 350.078430,336.271790 356.552216,320.438690 
	C357.278809,318.661621 357.146454,315.681488 356.072632,314.302582 
	C355.281891,313.287109 352.295197,313.828674 350.307129,313.966431 
	C349.385315,314.030365 348.509949,314.781830 347.615875,315.226379 
	C290.075623,343.836182 240.315674,382.524536 197.788589,430.644714 
	C150.778152,483.837860 117.038864,544.426697 96.350578,612.288940 
	C83.760445,653.587402 77.002922,695.856445 75.863487,739.018433 
	C75.705406,745.006531 76.732735,746.276367 82.176193,745.892090 
	C101.606049,744.520813 121.033104,743.093140 140.444305,741.482910 
	C147.278275,740.916016 147.659821,740.197021 147.960739,733.576050 
	C149.058884,709.415710 152.172928,685.507690 157.554169,661.936768 
	C170.464722,605.386047 193.917725,553.616150 228.823944,506.326996 
M913.568298,409.931854 
	C865.254333,361.387421 809.605774,323.906372 745.745056,298.878052 
	C743.755981,298.098511 741.209839,298.740509 738.923401,298.719788 
	C738.911804,301.042084 738.115356,303.733856 739.008240,305.630371 
	C749.713501,328.369659 757.226196,352.075958 760.359924,377.012299 
	C761.152344,383.318146 764.152710,386.418213 769.373352,389.336517 
	C822.958801,419.290680 867.623962,459.386932 903.760681,508.943207 
	C939.177063,557.511780 962.780457,611.365173 974.828064,670.244019 
	C975.837952,675.179565 977.841614,676.746765 982.937622,676.299438 
	C1002.004089,674.625488 1021.107544,673.366577 1040.202026,672.021118 
	C1046.647217,671.567017 1048.262817,669.846558 1046.789429,663.459167 
	C1043.129272,647.591797 1039.878418,631.589233 1035.305664,615.980042 
	C1012.249146,537.276672 971.543457,468.884644 913.568298,409.931854 
M268.016693,580.536377 
	C270.900940,576.256653 273.727600,571.936768 276.679230,567.704102 
	C290.929291,547.269165 307.332520,528.703308 325.631470,511.824188 
	C328.765594,508.933258 330.099457,506.017639 329.002075,501.718933 
	C327.729980,496.735931 327.103333,491.591400 326.085724,486.539307 
	C324.920471,480.754211 321.642426,479.431030 317.420990,483.419281 
	C306.407410,493.824585 295.044403,503.943665 284.844849,515.112122 
	C245.242889,558.476196 216.897720,608.414917 201.266006,665.033752 
	C195.361511,686.420166 192.383102,708.621887 188.264969,730.488464 
	C187.328812,735.459229 189.161896,737.221985 194.307480,737.040283 
	C198.961395,736.875977 203.603134,736.188110 208.253510,736.152039 
	C212.947937,736.115662 214.350037,733.741516 215.083130,729.438477 
	C217.788864,713.556641 220.198700,697.573242 224.000214,681.939392 
	C232.761780,645.907288 248.023209,612.554810 268.016693,580.536377 
M863.974243,536.528442 
	C837.060059,502.572449 805.476074,473.762848 769.003784,450.337677 
	C763.850830,447.028107 761.065979,448.191284 759.978149,454.110291 
	C759.107239,458.849335 758.299500,463.604309 757.253601,468.305481 
	C756.429260,472.010620 757.520691,474.383423 760.658081,476.747040 
	C774.338562,487.053436 788.404114,496.972321 801.195496,508.311493 
	C836.906982,539.968567 864.878906,577.708740 884.663757,621.100281 
	C892.839294,639.030518 898.670776,658.041626 905.287048,676.661072 
	C906.692688,680.617004 908.506287,682.506653 912.812927,681.960266 
	C917.429138,681.374573 922.103821,681.264954 926.733765,680.768311 
	C931.692078,680.236511 933.180786,678.075134 931.937012,673.377502 
	C918.693970,623.358521 896.401062,577.817688 863.974243,536.528442 
z"/>
<path fill="#FFA848" opacity="1.000000" stroke="none" 
	d="
M560.999512,230.016342 
	C612.732178,231.322891 653.477661,253.057434 685.658813,293.630524 
	C683.767639,293.902008 682.721252,294.270599 681.726379,294.163147 
	C656.205200,291.406799 636.008118,301.864532 617.728821,318.637054 
	C591.154968,343.020386 568.837097,370.911774 548.430054,400.411743 
	C537.164734,416.696716 526.756042,433.574371 515.965149,450.187408 
	C515.330383,451.164642 514.795288,452.212372 514.104431,453.146393 
	C510.827148,457.577026 507.882538,457.490784 505.808777,452.305206 
	C502.603546,444.290344 499.914886,436.060455 497.218903,427.852203 
	C492.097870,412.260468 487.348419,409.570801 472.112427,415.232697 
	C464.203125,418.171906 456.492950,421.875519 449.146484,426.035095 
	C442.053070,430.051331 438.533203,436.336029 438.770264,445.071289 
	C439.485077,471.409821 446.469727,496.283691 455.505981,520.718994 
	C458.388580,528.513977 462.061951,536.019226 464.876343,543.836060 
	C468.447021,553.753235 476.602997,557.214722 485.706116,558.503601 
	C498.903992,560.372253 512.174194,559.908020 523.851074,552.478577 
	C528.028015,549.821045 531.710327,545.713074 534.387573,541.487244 
	C546.489502,522.385559 556.922974,502.110046 570.198730,483.890503 
	C611.575928,427.104858 653.968567,371.059113 695.975098,314.732208 
	C696.367554,314.206055 696.864441,313.757812 697.776733,312.771210 
	C698.724182,314.341736 699.598206,315.635223 700.319275,317.008972 
	C714.061157,343.187988 721.721313,371.052612 723.104370,400.579132 
	C725.963318,461.615540 708.039124,515.928772 668.948914,562.808594 
	C639.331299,598.328125 602.025452,622.228149 556.174683,630.773010 
	C488.246124,643.432312 427.118134,612.502258 392.906891,557.927795 
	C375.678101,530.444031 366.157227,500.406158 363.923706,468.134399 
	C359.535583,404.730865 377.550720,348.262390 418.460480,299.703674 
	C448.235291,264.361847 485.772156,240.979630 531.692017,232.507263 
	C541.129822,230.765961 550.893982,230.793396 560.999512,230.016342 
z"/>
<path fill="#40C8D7" opacity="1.000000" stroke="none" 
	d="
M526.680786,711.752075 
	C491.865234,714.448547 457.515778,717.132874 423.162109,719.762146 
	C399.594025,721.566040 376.015686,723.237183 352.449860,725.069397 
	C324.738861,727.223816 297.036530,729.489197 269.330109,731.702332 
	C268.167603,731.795166 267.002625,731.884949 265.837341,731.910522 
	C260.298370,732.032471 258.225677,730.024231 259.242310,724.739929 
	C262.130188,709.728638 264.352112,694.509705 268.463013,679.828003 
	C281.470886,633.371643 304.436096,592.260803 337.015472,556.599976 
	C342.161133,550.967712 344.601105,551.224976 347.971741,558.031006 
	C364.493866,591.392761 387.527130,619.159851 418.519409,640.019165 
	C443.946289,657.132690 471.926910,667.471985 502.394989,671.162720 
	C556.122009,677.670837 604.715515,663.770813 648.960449,633.725220 
	C689.677734,606.075134 719.290771,569.011841 739.208679,524.096680 
	C742.269043,517.195679 744.453918,516.646851 750.396729,521.309082 
	C802.477478,562.167236 837.616394,614.540771 856.681702,677.819824 
	C858.571289,684.091858 857.691589,685.748535 851.213440,686.350220 
	C836.465759,687.719971 821.688660,688.774536 806.921875,689.936279 
	C778.050537,692.207458 749.180237,694.494019 720.305237,696.717712 
	C696.738342,698.532715 673.161438,700.217957 649.595703,702.047119 
	C621.552063,704.223877 593.516113,706.498230 565.475952,708.719604 
	C552.700012,709.731689 539.922058,710.718323 526.680786,711.752075 
z"/>
<path fill="#FE704F" opacity="1.000000" stroke="none" 
	d="
M228.606827,506.612854 
	C193.917725,553.616150 170.464722,605.386047 157.554169,661.936768 
	C152.172928,685.507690 149.058884,709.415710 147.960739,733.576050 
	C147.659821,740.197021 147.278275,740.916016 140.444305,741.482910 
	C121.033104,743.093140 101.606049,744.520813 82.176193,745.892090 
	C76.732735,746.276367 75.705406,745.006531 75.863487,739.018433 
	C77.002922,695.856445 83.760445,653.587402 96.350578,612.288940 
	C117.038864,544.426697 150.778152,483.837860 197.788589,430.644714 
	C240.315674,382.524536 290.075623,343.836182 347.615875,315.226379 
	C348.509949,314.781830 349.385315,314.030365 350.307129,313.966431 
	C352.295197,313.828674 355.281891,313.287109 356.072632,314.302582 
	C357.146454,315.681488 357.278809,318.661621 356.552216,320.438690 
	C350.078430,336.271790 342.660583,351.751740 336.882172,367.825134 
	C332.801392,379.176300 330.559387,391.228607 328.040894,403.083527 
	C326.877472,408.559845 324.912903,412.589111 320.098907,416.030334 
	C290.671875,437.065796 264.651550,461.812408 241.695480,489.762177 
	C237.258926,495.163849 233.107117,500.799377 228.606827,506.612854 
z"/>
<path fill="#FE704F" opacity="1.000000" stroke="none" 
	d="
M913.816895,410.183350 
	C971.543457,468.884644 1012.249146,537.276672 1035.305664,615.980042 
	C1039.878418,631.589233 1043.129272,647.591797 1046.789429,663.459167 
	C1048.262817,669.846558 1046.647217,671.567017 1040.202026,672.021118 
	C1021.107544,673.366577 1002.004089,674.625488 982.937622,676.299438 
	C977.841614,676.746765 975.837952,675.179565 974.828064,670.244019 
	C962.780457,611.365173 939.177063,557.511780 903.760681,508.943207 
	C867.623962,459.386932 822.958801,419.290680 769.373352,389.336517 
	C764.152710,386.418213 761.152344,383.318146 760.359924,377.012299 
	C757.226196,352.075958 749.713501,328.369659 739.008240,305.630371 
	C738.115356,303.733856 738.911804,301.042084 738.923401,298.719788 
	C741.209839,298.740509 743.755981,298.098511 745.745056,298.878052 
	C809.605774,323.906372 865.254333,361.387421 913.816895,410.183350 
z"/>
<path fill="#F57E13" opacity="1.000000" stroke="none" 
	d="
M490.914459,862.090942 
	C488.274414,862.090942 485.634369,862.090942 482.287262,862.090942 
	C486.960388,826.458313 491.608978,791.012817 496.306091,755.197388 
	C510.423645,754.065491 524.282654,752.954285 538.465027,751.817139 
	C538.987122,754.139099 539.447021,756.184204 539.982788,759.034302 
	C542.791626,776.291199 545.524536,792.743042 548.257446,809.194946 
	C548.566589,809.268494 548.875732,809.342041 549.184814,809.415588 
	C550.686584,806.000549 552.188416,802.585510 553.690186,799.170471 
	C560.495667,783.647766 567.357788,768.149414 574.050781,752.578430 
	C575.168762,749.977600 576.555237,748.736389 579.478455,748.540771 
	C592.213684,747.688843 604.933777,746.610168 618.092163,745.579956 
	C617.977295,748.162170 617.891174,750.099609 617.617554,752.812012 
	C616.309143,761.805054 615.149170,770.018127 614.074890,778.242371 
	C610.980347,801.933960 607.908813,825.628601 604.863892,849.326599 
	C604.540344,851.844543 603.503235,852.968872 600.742798,853.137268 
	C592.459595,853.642578 584.197693,854.496643 575.927429,855.214539 
	C573.309570,855.373291 570.691772,855.532043 567.403870,855.731445 
	C568.952881,843.547607 570.465271,831.652161 572.082336,818.948975 
	C573.588196,807.768860 574.989441,797.396362 576.390686,787.023926 
	C574.875793,787.558044 574.388672,788.375000 574.000732,789.236633 
	C564.878601,809.496155 555.485962,829.641541 546.830566,850.098755 
	C544.330872,856.006836 541.433777,858.956238 534.924622,858.262878 
	C532.357300,857.989380 529.673279,858.811523 527.042358,859.134705 
	C522.039124,860.131165 519.995239,858.150635 519.250488,852.997314 
	C517.484009,840.773865 515.047302,828.647278 512.816650,815.701172 
	C511.038391,805.960266 509.324890,796.999634 507.507965,787.498291 
	C507.013580,789.381531 506.494659,790.754272 506.305115,792.171143 
	C503.529083,812.921204 500.565979,833.651001 498.218536,854.450073 
	C497.639221,859.583130 496.098297,862.151550 490.914459,862.090942 
z"/>
<path fill="#FFA94A" opacity="1.000000" stroke="none" 
	d="
M267.818909,580.840149 
	C248.023209,612.554810 232.761780,645.907288 224.000214,681.939392 
	C220.198700,697.573242 217.788864,713.556641 215.083130,729.438477 
	C214.350037,733.741516 212.947937,736.115662 208.253510,736.152039 
	C203.603134,736.188110 198.961395,736.875977 194.307480,737.040283 
	C189.161896,737.221985 187.328812,735.459229 188.264969,730.488464 
	C192.383102,708.621887 195.361511,686.420166 201.266006,665.033752 
	C216.897720,608.414917 245.242889,558.476196 284.844849,515.112122 
	C295.044403,503.943665 306.407410,493.824585 317.420990,483.419281 
	C321.642426,479.431030 324.920471,480.754211 326.085724,486.539307 
	C327.103333,491.591400 327.729980,496.735931 329.002075,501.718933 
	C330.099457,506.017639 328.765594,508.933258 325.631470,511.824188 
	C307.332520,528.703308 290.929291,547.269165 276.679230,567.704102 
	C273.727600,571.936768 270.900940,576.256653 267.818909,580.840149 
z"/>
<path fill="#FFA94A" opacity="1.000000" stroke="none" 
	d="
M864.203613,536.799316 
	C896.401062,577.817688 918.693970,623.358521 931.937012,673.377502 
	C933.180786,678.075134 931.692078,680.236511 926.733765,680.768311 
	C922.103821,681.264954 917.429138,681.374573 912.812927,681.960266 
	C908.506287,682.506653 906.692688,680.617004 905.287048,676.661072 
	C898.670776,658.041626 892.839294,639.030518 884.663757,621.100281 
	C864.878906,577.708740 836.906982,539.968567 801.195496,508.311493 
	C788.404114,496.972321 774.338562,487.053436 760.658081,476.747040 
	C757.520691,474.383423 756.429260,472.010620 757.253601,468.305481 
	C758.299500,463.604309 759.107239,458.849335 759.978149,454.110291 
	C761.065979,448.191284 763.850830,447.028107 769.003784,450.337677 
	C805.476074,473.762848 837.060059,502.572449 864.203613,536.799316 
z"/>
<path fill="#0BB3E4" opacity="1.000000" stroke="none" 
	d="
M393.523865,818.722046 
	C400.729095,812.096375 407.790497,805.302368 415.227936,798.948547 
	C417.433960,797.064087 420.599243,795.812195 423.499451,795.338379 
	C428.664246,794.494690 433.962006,794.464966 439.859192,794.971252 
	C437.621582,797.062622 435.384003,799.154053 432.707153,801.696411 
	C424.735626,809.299377 417.203339,816.451355 409.594543,823.675964 
	C419.052368,837.905273 428.103333,851.522461 437.651978,865.888367 
	C426.103058,867.008667 415.459167,868.041138 404.815308,869.073608 
	C401.601471,869.543640 399.742157,868.033447 398.196381,865.261047 
	C395.377686,860.205505 392.182678,855.359741 388.868073,849.819336 
	C386.328400,845.609802 384.065277,842.007446 381.117340,837.315002 
	C379.526001,849.307129 378.103271,860.028564 376.668579,870.840271 
	C372.082489,871.252563 367.966766,871.625977 363.850311,871.991577 
	C359.723846,872.358215 355.596649,872.717041 351.469788,873.079285 
	C348.881317,873.209961 346.292877,873.340637 343.353210,873.489075 
	C343.353210,871.560425 343.353210,869.681641 343.175629,867.401489 
	C342.998047,867.000183 343.008942,867.060852 343.325165,866.867798 
	C343.743469,865.673950 343.845551,864.673096 344.023132,863.354126 
	C344.296814,861.833252 344.494965,860.630493 344.693146,859.427673 
	C348.968842,826.379883 353.244537,793.332031 357.547150,760.075989 
	C368.986511,759.167419 380.023682,758.290771 391.435547,757.384399 
	C391.258545,759.888550 391.110626,761.980835 390.845520,764.852051 
	C387.989838,786.141785 385.251404,806.652466 382.512970,827.163147 
	C382.906311,827.303467 383.299652,827.443787 383.692993,827.584106 
	C386.969940,824.630066 390.246918,821.676025 393.523865,818.722046 
z"/>
<path fill="#0BB3E4" opacity="1.000000" stroke="none" 
	d="
M226.899017,883.020386 
	C225.264313,883.001343 223.629623,882.982361 221.527130,882.563354 
	C218.273788,873.835022 217.636215,873.309570 212.920456,877.182861 
	C203.234604,885.138306 192.600433,888.846252 180.106110,885.809021 
	C180.106110,885.809021 180.069962,885.893188 180.066223,885.679382 
	C179.869034,885.221375 179.616821,885.106262 179.305878,885.120300 
	C164.193222,875.959473 164.009933,857.424500 179.218292,848.395203 
	C183.554047,845.821106 188.701599,844.614319 194.211090,842.619873 
	C199.628784,841.616089 204.312271,840.772949 209.433472,839.975342 
	C213.422852,839.649048 216.974487,839.277161 220.821594,838.874390 
	C220.821594,834.869995 220.821594,831.432800 220.828735,827.637634 
	C219.815933,823.211182 217.280136,821.015015 213.014923,821.140503 
	C204.961548,821.377502 202.206680,827.017944 200.743011,833.727234 
	C195.361618,834.242981 190.275604,834.730408 185.189590,835.217773 
	C182.708115,835.391907 180.226639,835.566101 177.758453,835.739319 
	C175.607376,825.887817 178.241623,820.125488 187.144867,816.484375 
	C203.190094,809.922241 219.800369,807.571167 236.967117,810.939819 
	C242.554123,812.036194 247.158569,814.901917 250.746170,820.188965 
	C251.373322,820.808228 251.672394,820.940063 251.971466,821.071899 
	C251.971481,821.071838 251.970383,821.000122 251.881073,821.439819 
	C252.450424,827.445984 254.027985,833.087036 253.583527,838.563965 
	C252.540512,851.416687 250.495956,864.186707 248.939087,877.000183 
	C248.614075,879.675171 247.710037,881.039307 244.664307,881.209534 
	C238.727356,881.541321 232.819138,882.387329 226.899017,883.020386 
M218.279785,854.358521 
	C218.538666,852.009644 218.797531,849.660706 219.101135,846.906006 
	C210.965408,847.765808 203.927185,848.863037 200.675659,856.720886 
	C197.760345,863.766235 200.585083,869.191406 207.976242,869.848511 
	C215.579208,867.465210 217.920807,864.013916 218.279785,854.358521 
z"/>
<path fill="#0BB3E4" opacity="1.000000" stroke="none" 
	d="
M107.109505,892.588684 
	C104.498749,892.588684 101.887985,892.588684 98.547295,892.588684 
	C102.333328,863.903564 106.096275,835.393433 109.915207,806.076782 
	C110.218857,803.336670 110.466530,801.402954 110.817924,798.659302 
	C104.633041,799.175842 98.890854,799.655396 93.148659,800.134949 
	C90.666756,800.249634 88.184860,800.364319 84.766953,800.522278 
	C85.290703,796.589905 85.546509,792.711792 86.492249,789.009949 
	C86.715424,788.136353 89.230438,787.482727 90.742592,787.359558 
	C109.456291,785.834778 128.180038,784.433533 146.900146,782.986816 
	C156.134521,782.273193 165.366699,781.531311 175.107224,780.762146 
	C174.940628,783.287659 174.813705,785.211853 174.491852,787.897461 
	C174.483932,792.998413 172.290253,794.165955 168.163651,794.126099 
	C162.706268,794.073303 157.245544,794.880127 151.778229,795.161621 
	C147.979950,795.357178 146.184341,797.050720 146.013412,800.971375 
	C145.833298,805.102112 145.191208,809.218140 144.646896,813.326721 
	C141.447113,837.478821 138.150360,861.618530 135.083099,885.787292 
	C134.709213,888.733215 134.128906,890.206543 130.833618,890.420227 
	C122.912010,890.933777 115.015900,891.840576 107.109505,892.588684 
z"/>
<path fill="#F57E13" opacity="1.000000" stroke="none" 
	d="
M635.955139,799.977600 
	C633.316833,799.977600 630.678528,799.977600 627.423767,799.977600 
	C627.984009,795.444763 628.348877,791.070190 629.171448,786.783386 
	C629.392395,785.632324 630.830017,784.411560 632.008423,783.792969 
	C649.032776,774.856323 667.141846,772.235229 686.042480,775.089783 
	C692.320190,776.037842 697.596680,779.095886 701.531799,785.191406 
	C702.579041,790.391479 704.261597,795.025146 703.888916,799.487061 
	C702.676147,814.005981 700.798523,828.473572 698.872498,842.920349 
	C698.718201,844.077942 696.328552,845.586548 694.819519,845.796936 
	C689.571289,846.528320 684.253357,846.759521 678.576660,847.171875 
	C677.943115,847.229309 677.694946,847.295837 677.446716,847.362427 
	C675.897522,847.408691 674.348328,847.454956 672.292786,847.117554 
	C670.502625,844.038818 669.218811,841.343750 667.613403,837.973450 
	C656.388367,848.528931 644.637817,853.930725 630.128723,849.914673 
	C621.687561,845.467407 618.269531,838.381287 618.871582,829.002258 
	C619.445007,820.070007 625.088379,815.064392 632.320923,811.371216 
	C635.243164,809.879028 638.493042,809.028503 642.314270,807.725098 
	C648.649170,806.572632 654.263672,805.581055 660.298950,804.575562 
	C664.011230,804.216736 667.302734,803.871887 671.113525,803.472534 
	C671.113525,799.729858 671.113525,796.162048 671.125916,792.229187 
	C670.492676,787.421448 667.803345,785.745789 663.473022,785.884216 
	C657.578430,786.072754 653.911377,788.501282 652.407715,794.667786 
	C651.636963,797.828552 649.999268,798.629333 647.306946,798.865295 
	C643.519592,799.197205 639.738770,799.603271 635.955139,799.977600 
M658.760986,834.171265 
	C666.593262,832.572998 668.322083,826.719788 668.903687,819.108276 
	C669.104187,816.853149 669.304749,814.597961 669.503174,812.367188 
	C659.572876,811.048523 651.811035,815.815063 650.255066,823.976990 
	C649.074707,830.168640 652.062500,834.067749 658.760986,834.171265 
z"/>
<path fill="#F47E13" opacity="1.000000" stroke="none" 
	d="
M927.020386,802.672729 
	C931.216675,802.417297 935.413025,802.161804 939.840149,801.892273 
	C939.500366,804.383545 939.237427,806.311218 938.894531,809.024780 
	C939.168457,820.805847 931.614319,824.226746 922.853821,826.668396 
	C907.305542,831.001770 891.717224,832.854736 875.916016,828.045654 
	C875.916016,828.045654 875.976807,828.008179 875.868408,827.808594 
	C875.447449,827.483093 875.134949,827.357239 874.822449,827.231384 
	C859.066833,819.143677 857.239380,800.083557 861.559082,784.349060 
	C861.995850,782.758240 862.657104,781.229065 863.518433,779.184082 
	C864.077637,778.220154 864.332642,777.743469 864.587646,777.266724 
	C870.953369,766.079773 881.224976,759.925171 893.234924,757.599426 
	C903.378967,755.634888 913.934692,755.278015 924.313477,755.224915 
	C931.263000,755.189453 937.525085,758.245056 942.010620,764.828369 
	C942.520386,765.566589 942.798462,765.766418 943.076477,765.966248 
	C943.076477,765.966248 943.001282,765.962524 943.001465,766.366455 
	C944.890625,774.374023 945.063293,781.971741 941.960388,789.260254 
	C941.287842,790.839966 939.083801,792.526428 937.385071,792.770325 
	C931.970581,793.547791 926.457703,793.617676 920.990356,794.055298 
	C912.084229,794.768372 903.184021,795.555908 893.408997,796.386108 
	C893.684326,802.190247 893.582336,807.658691 894.315247,813.012878 
	C894.874390,817.098572 896.913574,820.437927 902.450439,818.514832 
	C905.120239,815.971558 908.779785,813.894531 909.613403,811.002869 
	C911.760742,803.553345 917.077698,803.087769 923.110657,803.058655 
	C924.414490,803.052307 925.717163,802.807678 927.020386,802.672729 
M914.045837,773.061707 
	C912.588257,770.878723 911.389771,767.192627 909.608826,766.885681 
	C907.279053,766.484131 903.726685,768.085754 902.045593,770.004395 
	C897.734680,774.924133 896.117615,781.179749 895.122314,788.215271 
	C898.769958,787.973267 901.874817,787.767212 905.803772,787.629150 
	C908.392090,787.346497 910.980408,787.063843 913.984131,786.735840 
	C913.984131,782.293396 913.984131,778.056335 914.045837,773.061707 
z"/>
<path fill="#0CB3E3" opacity="1.000000" stroke="none" 
	d="
M276.704498,848.154541 
	C262.503174,842.549805 260.327454,820.393372 276.844666,810.617737 
	C288.292542,803.842407 300.915619,802.245911 313.830170,802.665771 
	C319.754211,802.858337 325.640900,804.264587 331.539215,805.155823 
	C334.529541,805.607666 335.327637,807.409607 334.314880,810.887085 
	C333.768799,814.400330 333.154388,817.167969 333.021118,819.958679 
	C332.877747,822.961182 331.470520,823.882812 328.641266,823.987732 
	C325.191071,824.115784 321.758026,824.705872 317.939758,824.988281 
	C315.218719,824.017700 310.696045,827.531311 310.919312,821.221680 
	C309.536865,818.628540 308.525116,815.051575 306.618195,814.484436 
	C304.622192,813.890747 301.146790,815.576538 299.404358,817.339600 
	C294.541656,822.259827 297.385834,828.418213 305.256653,830.275146 
	C310.046906,831.271790 314.528381,832.039429 319.009888,832.807068 
	C324.856750,834.456177 330.128998,836.999512 333.916992,842.779053 
	C334.455048,843.546387 334.750854,843.764648 335.046661,843.982849 
	C335.046661,843.982849 334.994019,843.986267 334.958374,844.394043 
	C337.403076,859.112854 333.770752,867.192871 322.144623,872.655762 
	C319.169403,874.053711 315.994354,875.167175 312.795898,875.924805 
	C298.319946,879.353821 283.674133,879.854553 268.931366,878.021545 
	C266.390533,877.271118 263.849701,876.520691 260.734863,875.600708 
	C261.271942,870.685486 261.659393,865.753418 262.466034,860.890869 
	C262.633514,859.881165 264.286102,858.481812 265.372498,858.365356 
	C271.643524,857.693359 277.950104,857.352417 284.590790,856.874451 
	C284.908600,858.442566 284.852844,860.046448 285.561249,861.167480 
	C286.369354,862.446228 287.790192,863.390564 289.071655,864.301636 
	C290.229675,865.125000 291.488770,865.990723 292.830719,866.322632 
	C294.394653,866.709534 296.812164,867.250122 297.596344,866.464172 
	C299.454926,864.601257 300.566956,861.993591 301.929321,858.969116 
	C299.539459,856.319824 297.485443,853.509399 294.802826,852.641357 
	C289.364899,850.881653 283.586609,850.173523 277.948639,849.031921 
	C277.948639,849.031921 277.988617,848.995056 277.893066,848.745911 
	C277.433197,848.382690 277.068848,848.268616 276.704498,848.154541 
z"/>
<path fill="#F47E14" opacity="1.000000" stroke="none" 
	d="
M719.153503,842.205017 
	C711.200134,840.520630 711.174133,840.517883 712.004395,832.674072 
	C712.317871,829.712219 712.782227,826.766296 713.262878,823.178284 
	C720.480652,822.556763 727.794556,821.926941 735.031311,821.303833 
	C735.834717,823.991272 735.858337,827.017273 737.379822,828.429443 
	C739.375610,830.281921 742.564636,831.810852 745.218872,831.777222 
	C749.739563,831.720032 752.277222,828.623718 752.164490,823.123779 
	C749.800110,820.567078 747.821655,817.950623 745.265625,817.127136 
	C739.617371,815.307556 733.678406,814.390381 727.858032,813.105164 
	C727.858032,813.105164 727.917175,813.048950 727.825500,812.872070 
	C727.512817,812.424866 727.228760,812.308960 726.881775,812.347412 
	C713.722778,807.385864 711.035889,786.209778 725.661804,776.231995 
	C733.290466,771.027771 741.900818,768.879395 750.892029,767.715820 
	C761.237915,766.376953 771.433289,766.915771 781.551086,769.510498 
	C784.245300,770.201355 785.730713,771.349304 784.885803,775.101013 
	C784.103088,779.860168 783.401428,783.826050 782.686829,787.865112 
	C777.739502,788.367493 773.204407,788.828003 768.303955,789.248169 
	C765.869507,789.341736 763.800476,789.475708 761.642639,789.615479 
	C761.411133,788.130615 761.238525,787.023804 761.098022,785.530212 
	C759.713196,782.952759 758.708374,779.615112 756.756531,778.914001 
	C755.018188,778.289612 751.678284,780.029480 750.011292,781.693665 
	C745.020386,786.676514 747.716614,792.545410 756.193970,794.962036 
	C760.796936,795.791626 764.977783,796.520630 769.280884,797.406494 
	C769.756958,797.639709 770.110657,797.716064 770.464355,797.792358 
	C775.972229,799.029907 780.553894,801.711792 784.090332,806.906067 
	C784.486206,807.736145 784.741272,807.917236 785.085266,807.973267 
	C785.085266,807.973267 785.011536,807.959412 785.036133,808.355591 
	C788.903687,822.491455 784.040527,832.886353 770.662354,837.906128 
	C753.970276,844.169250 736.647278,844.637939 719.153503,842.205017 
z"/>
<path fill="#F57E13" opacity="1.000000" stroke="none" 
	d="
M814.028687,835.996399 
	C804.532532,832.307800 802.985291,824.350220 803.696167,815.676331 
	C804.544800,805.321167 806.028564,795.017944 807.457764,783.941284 
	C807.819336,780.934387 807.960510,778.678406 808.122925,776.082581 
	C806.454224,776.232849 805.337219,776.333435 804.220276,776.434021 
	C801.599182,776.600159 798.978149,776.766296 796.073242,776.950439 
	C796.073242,775.129822 796.086304,773.695740 796.070801,772.261963 
	C796.020630,767.616760 797.850281,765.033447 802.742004,763.610962 
	C812.998596,760.628479 820.963379,754.072388 826.654602,745.058655 
	C828.852600,741.577515 831.438843,739.958069 835.538574,740.065613 
	C839.146606,740.160339 842.769287,739.698425 846.797180,739.457764 
	C846.532715,741.870300 846.304077,743.955872 846.004272,746.843323 
	C845.269531,752.276794 844.605896,756.908447 843.840576,762.250061 
	C847.524048,761.726685 850.263489,761.337402 853.002991,760.948181 
	C854.213623,761.089539 855.424316,761.230896 856.802979,761.391846 
	C856.541565,763.572571 856.316711,765.447998 856.043579,768.106445 
	C855.112366,770.014587 854.439941,771.724731 853.299744,772.135132 
	C851.332458,772.843018 849.060303,773.024902 846.941528,772.918945 
	C843.344055,772.739014 842.207275,774.159363 841.821411,777.757874 
	C840.552490,789.594482 838.816650,801.381165 837.253601,813.186157 
	C836.322510,820.218201 838.121765,822.201050 845.160522,821.875488 
	C846.279358,821.983582 847.398193,822.091675 848.993469,822.245789 
	C848.752747,824.228271 848.524170,826.110413 848.198425,828.776489 
	C848.199890,832.487061 847.044006,834.174744 843.872803,834.333496 
	C833.921997,834.831482 823.976318,835.434265 814.028687,835.996399 
z"/>
<path fill="#F47E13" opacity="1.000000" stroke="none" 
	d="
M958.066223,825.124878 
	C955.422485,825.124878 952.778748,825.124878 949.387268,825.124878 
	C952.461365,801.414734 955.563171,777.490784 958.735413,753.023315 
	C967.757690,752.272278 976.622742,751.534302 985.564514,750.789978 
	C986.074646,752.018433 986.524597,752.891357 986.806885,753.815491 
	C988.963257,760.874878 990.430725,761.383850 995.478149,755.878174 
	C1002.684265,748.018005 1011.573914,745.658691 1021.689209,747.176392 
	C1024.709106,747.629517 1028.775513,747.940735 1027.549683,753.738037 
	C1026.576538,760.206909 1025.583862,765.938965 1025.042358,771.713318 
	C1023.888123,784.019287 1023.984070,784.028259 1012.004089,785.344116 
	C1009.889893,785.455566 1007.775757,785.567017 1005.442505,785.689941 
	C1004.809448,782.319580 1004.205566,779.104980 1003.365356,775.200684 
	C1002.631104,770.307312 1000.285034,767.762939 996.045776,768.279663 
	C992.234192,768.744263 989.926331,771.315308 989.654053,775.394714 
	C989.566223,776.710266 989.194580,778.004150 989.024292,779.317322 
	C987.298401,792.631653 985.569702,805.945801 983.887695,819.265686 
	C983.577881,821.718994 982.689819,823.013123 979.867615,823.184998 
	C972.588074,823.628235 965.331787,824.452698 958.066223,825.124878 
z"/>
<path fill="#989B9C" opacity="1.000000" stroke="none" 
	d="
M107.080421,893.018066 
	C115.015900,891.840576 122.912010,890.933777 130.833618,890.420227 
	C134.128906,890.206543 134.709213,888.733215 135.083099,885.787292 
	C138.150360,861.618530 141.447113,837.478821 144.646896,813.326721 
	C145.191208,809.218140 145.833298,805.102112 146.013412,800.971375 
	C146.184341,797.050720 147.979950,795.357178 151.778229,795.161621 
	C157.245544,794.880127 162.706268,794.073303 168.163651,794.126099 
	C172.290253,794.165955 174.483932,792.998413 174.506439,788.358154 
	C177.198044,788.057434 179.680115,788.057434 182.952438,788.057434 
	C182.474716,791.825684 182.219574,795.543213 181.383942,799.125366 
	C181.195724,799.932190 179.015686,800.638062 177.696152,800.755310 
	C171.411682,801.313782 165.112122,801.756287 158.808762,802.025269 
	C155.801804,802.153564 154.394501,803.250671 153.997574,806.389099 
	C150.354584,835.193420 146.561508,863.978760 142.881699,892.778503 
	C142.514923,895.649170 141.607529,897.052917 138.317795,897.249084 
	C127.776672,897.877502 117.260620,898.926575 106.368713,899.844177 
	C106.638329,897.317566 106.844833,895.382507 107.080421,893.018066 
z"/>
<path fill="#9C9A99" opacity="1.000000" stroke="none" 
	d="
M575.921387,855.594360 
	C584.197693,854.496643 592.459595,853.642578 600.742798,853.137268 
	C603.503235,852.968872 604.540344,851.844543 604.863892,849.326599 
	C607.908813,825.628601 610.980347,801.933960 614.074890,778.242371 
	C615.149170,770.018127 616.309143,761.805054 617.663940,753.268677 
	C620.362122,752.746216 622.826416,752.541870 626.118408,752.268921 
	C625.282898,759.267456 624.554993,765.954163 623.676208,772.620972 
	C620.092224,799.811768 616.389587,826.987244 612.925781,854.193176 
	C612.393433,858.374573 611.099182,860.015930 606.526306,860.167236 
	C596.258362,860.507019 586.018005,861.679321 575.115295,862.565613 
	C575.416016,860.087646 575.665649,858.030945 575.921387,855.594360 
z"/>
<path fill="#999C9D" opacity="1.000000" stroke="none" 
	d="
M404.916321,869.419861 
	C415.459167,868.041138 426.103058,867.008667 437.651978,865.888367 
	C428.103333,851.522461 419.052368,837.905273 409.594543,823.675964 
	C417.203339,816.451355 424.735626,809.299377 432.569641,802.000854 
	C437.595245,801.531860 442.319153,801.209412 448.504730,800.787231 
	C437.610626,811.284424 427.752380,820.783447 417.684631,830.484314 
	C427.002991,844.512573 436.141663,858.270203 445.807587,872.821655 
	C436.926422,873.578247 429.061188,874.258240 421.193665,874.910950 
	C419.373230,875.062073 417.418732,874.737610 415.743622,875.290955 
	C410.152893,877.137817 406.917267,874.856873 404.916321,869.419861 
z"/>
<path fill="#9C9A98" opacity="1.000000" stroke="none" 
	d="
M527.084106,859.524109 
	C529.673279,858.811523 532.357300,857.989380 534.924622,858.262878 
	C541.433777,858.956238 544.330872,856.006836 546.830566,850.098755 
	C555.485962,829.641541 564.878601,809.496155 574.000732,789.236633 
	C574.388672,788.375000 574.875793,787.558044 576.390686,787.023926 
	C574.989441,797.396362 573.588196,807.768860 572.066162,818.520935 
	C565.586731,832.700623 559.087158,846.438660 552.969177,860.344604 
	C551.450928,863.795776 549.540833,864.960754 545.921814,865.005798 
	C540.182922,865.077087 534.451233,865.725891 528.586548,866.139526 
	C528.019531,863.722595 527.572693,861.818054 527.084106,859.524109 
z"/>
<path fill="#9C9A99" opacity="1.000000" stroke="none" 
	d="
M958.063660,825.525635 
	C965.331787,824.452698 972.588074,823.628235 979.867615,823.184998 
	C982.689819,823.013123 983.577881,821.718994 983.887695,819.265686 
	C985.569702,805.945801 987.298401,792.631653 989.024292,779.317322 
	C989.194580,778.004150 989.566223,776.710266 989.654053,775.394714 
	C989.926331,771.315308 992.234192,768.744263 996.045776,768.279663 
	C1000.285034,767.762939 1002.631104,770.307312 1003.148987,774.827515 
	C999.815796,776.212891 998.097961,778.402344 997.645569,782.001587 
	C995.846924,796.313354 993.718079,810.584900 992.045837,824.910400 
	C991.617004,828.583984 990.594666,829.977051 986.685425,830.146301 
	C977.115845,830.560852 967.571899,831.568542 957.599365,832.371216 
	C957.785828,829.768921 957.923462,827.847656 958.063660,825.525635 
z"/>
<path fill="#9A9C9C" opacity="1.000000" stroke="none" 
	d="
M268.896942,878.370850 
	C283.674133,879.854553 298.319946,879.353821 312.795898,875.924805 
	C315.994354,875.167175 319.169403,874.053711 322.144623,872.655762 
	C333.770752,867.192871 337.403076,859.112854 334.977478,844.375732 
	C339.823425,844.807312 341.265259,848.771790 342.760254,852.533569 
	C343.537537,854.489319 343.780945,856.657227 344.479309,859.078491 
	C344.494965,860.630493 344.296814,861.833252 343.746643,863.608337 
	C343.266052,865.140686 343.137482,866.100769 343.008942,867.060852 
	C343.008942,867.060852 342.998047,867.000183 343.026917,866.990234 
	C337.178314,877.086548 327.783600,881.559021 316.760468,883.541016 
	C302.136627,886.170349 287.516907,887.155151 272.890717,883.693970 
	C270.413391,883.107788 267.225494,882.781006 268.896942,878.370850 
z"/>
<path fill="#9C9A98" opacity="1.000000" stroke="none" 
	d="
M719.134949,842.603027 
	C736.647278,844.637939 753.970276,844.169250 770.662354,837.906128 
	C784.040527,832.886353 788.903687,822.491455 785.059326,808.326111 
	C794.135742,809.669678 798.079224,828.341003 789.517334,836.726135 
	C785.615723,840.547241 780.625671,844.052063 775.489563,845.672180 
	C758.278809,851.100891 740.635315,851.743103 722.881714,848.039734 
	C719.904053,847.418640 718.397217,846.160156 719.134949,842.603027 
z"/>
<path fill="#9C9A99" opacity="1.000000" stroke="none" 
	d="
M902.152893,818.610046 
	C896.913574,820.437927 894.874390,817.098572 894.315247,813.012878 
	C893.582336,807.658691 893.684326,802.190247 893.408997,796.386108 
	C903.184021,795.555908 912.084229,794.768372 920.990356,794.055298 
	C926.457703,793.617676 931.970581,793.547791 937.385071,792.770325 
	C939.083801,792.526428 941.287842,790.839966 941.960388,789.260254 
	C945.063293,781.971741 944.890625,774.374023 943.030396,766.342407 
	C949.448059,767.929504 953.481628,775.838623 952.585938,784.644958 
	C952.434998,786.128479 952.166077,787.599487 951.974487,789.079346 
	C950.752686,798.515625 949.578613,799.557129 940.290588,800.004822 
	C936.153076,800.204224 932.028320,800.670166 927.009338,801.031372 
	C918.201477,801.678772 910.281982,802.310059 901.228333,803.031738 
	C901.554993,808.535034 901.853943,813.572571 902.152893,818.610046 
z"/>
<path fill="#989B9C" opacity="1.000000" stroke="none" 
	d="
M226.969345,883.393433 
	C232.819138,882.387329 238.727356,881.541321 244.664307,881.209534 
	C247.710037,881.039307 248.614075,879.675171 248.939087,877.000183 
	C250.495956,864.186707 252.540512,851.416687 253.583527,838.563965 
	C254.027985,833.087036 252.450424,827.445984 251.854782,821.464233 
	C258.267731,823.720764 260.646729,829.323059 260.825836,835.385498 
	C261.074066,843.787231 260.391846,852.243164 259.674469,860.638794 
	C259.053894,867.901367 257.709900,875.099304 256.919342,882.351318 
	C256.509247,886.112854 255.570984,888.367432 250.975525,888.188477 
	C246.032806,887.995972 240.930389,888.277039 236.117676,889.343994 
	C230.783325,890.526672 227.880249,889.198547 226.969345,883.393433 
z"/>
<path fill="#9C9B9A" opacity="1.000000" stroke="none" 
	d="
M678.962036,847.181030 
	C684.253357,846.759521 689.571289,846.528320 694.819519,845.796936 
	C696.328552,845.586548 698.718201,844.077942 698.872498,842.920349 
	C700.798523,828.473572 702.676147,814.005981 703.888916,799.487061 
	C704.261597,795.025146 702.579041,790.391479 701.739624,785.435181 
	C709.820251,788.526184 711.987427,795.857178 711.726562,803.456055 
	C711.334961,814.866150 709.691162,826.235596 708.506714,837.614685 
	C708.129028,841.243530 707.259827,844.836426 707.096130,848.467468 
	C706.960449,851.478699 705.609253,852.570679 702.852112,852.739075 
	C696.883240,853.103638 690.882568,853.276062 684.966003,854.062500 
	C680.540771,854.650696 678.472290,852.977478 678.058105,848.361450 
	C678.484131,847.650024 678.723083,847.415527 678.962036,847.181030 
z"/>
<path fill="#9C9A98" opacity="1.000000" stroke="none" 
	d="
M490.907227,862.486938 
	C496.098297,862.151550 497.639221,859.583130 498.218536,854.450073 
	C500.565979,833.651001 503.529083,812.921204 506.305115,792.171143 
	C506.494659,790.754272 507.013580,789.381531 507.507965,787.498291 
	C509.324890,796.999634 511.038391,805.960266 512.734497,815.260498 
	C511.142517,825.528625 509.500000,835.447083 508.018616,845.389526 
	C507.117554,851.437012 506.408752,857.515259 505.725250,863.592285 
	C505.391815,866.556702 504.391754,868.451172 500.943817,868.452087 
	C497.514404,868.453064 494.085083,868.882385 490.111206,869.162231 
	C490.423859,866.673218 490.661926,864.778076 490.907227,862.486938 
z"/>
<path fill="#9C9B9A" opacity="1.000000" stroke="none" 
	d="
M875.968872,828.383545 
	C891.717224,832.854736 907.305542,831.001770 922.853821,826.668396 
	C931.614319,824.226746 939.168457,820.805847 938.930908,809.436401 
	C941.831421,809.062195 944.615479,809.062195 947.816345,809.062195 
	C947.021240,814.207825 946.412170,819.442322 945.299011,824.567383 
	C944.964783,826.106506 943.513611,827.934448 942.087524,828.624146 
	C924.658936,837.054443 906.426758,840.334534 887.425720,835.432129 
	C883.320557,834.372925 879.807556,831.018616 875.968872,828.383545 
z"/>
<path fill="#9C9A99" opacity="1.000000" stroke="none" 
	d="
M845.178101,821.475891 
	C838.121765,822.201050 836.322510,820.218201 837.253601,813.186157 
	C838.816650,801.381165 840.552490,789.594482 841.821411,777.757874 
	C842.207275,774.159363 843.344055,772.739014 846.941528,772.918945 
	C849.060303,773.024902 851.332458,772.843018 853.299744,772.135132 
	C854.439941,771.724731 855.112366,770.014587 856.075134,768.505005 
	C858.880310,768.120544 861.605713,768.120544 864.599609,768.120544 
	C864.450378,771.178894 864.318665,773.879150 864.387268,776.923096 
	C864.332642,777.743469 864.077637,778.220154 863.647217,778.808289 
	C862.311157,779.015076 861.144165,779.062439 859.990784,779.213379 
	C849.966736,780.525391 850.100220,780.545410 848.970276,790.923279 
	C847.874146,800.991943 846.466553,811.026672 845.178101,821.475891 
z"/>
<path fill="#989B9C" opacity="1.000000" stroke="none" 
	d="
M393.350342,818.314392 
	C390.246918,821.676025 386.969940,824.630066 383.692993,827.584106 
	C383.299652,827.443787 382.906311,827.303467 382.512970,827.163147 
	C385.251404,806.652466 387.989838,786.141785 390.888123,765.247925 
	C393.659912,764.590942 396.271881,764.317078 399.654999,763.962341 
	C398.548248,772.593384 397.451416,780.707336 396.479950,788.836304 
	C395.322723,798.519775 394.273071,808.216064 393.350342,818.314392 
z"/>
<path fill="#989B9C" opacity="1.000000" stroke="none" 
	d="
M351.432617,873.524414 
	C355.596649,872.717041 359.723846,872.358215 363.850311,871.991577 
	C367.966766,871.625977 372.082489,871.252563 376.668579,870.840271 
	C378.103271,860.028564 379.526001,849.307129 381.117340,837.315002 
	C384.065277,842.007446 386.328400,845.609802 388.686829,849.507202 
	C387.399475,858.923523 386.016815,868.044861 384.549133,877.727051 
	C373.668640,878.587952 362.705109,879.455444 351.108124,880.372986 
	C351.223999,877.790833 351.309723,875.880188 351.432617,873.524414 
z"/>
<path fill="#9C9B9A" opacity="1.000000" stroke="none" 
	d="
M1012.045410,785.711426 
	C1023.984070,784.028259 1023.888123,784.019287 1025.042358,771.713318 
	C1025.583862,765.938965 1026.576538,760.206909 1027.606934,754.127563 
	C1035.856567,754.802856 1036.020874,754.985229 1035.041260,762.874756 
	C1034.021240,771.087646 1032.806519,779.279968 1031.988281,787.512207 
	C1031.711304,790.297119 1030.532593,791.229126 1028.015015,791.384827 
	C1023.245361,791.679810 1018.482422,792.084045 1013.519409,792.457764 
	C1013.013123,790.203613 1012.549927,788.141174 1012.045410,785.711426 
z"/>
<path fill="#9F9C99" opacity="1.000000" stroke="none" 
	d="
M635.927979,800.373413 
	C639.738770,799.603271 643.519592,799.197205 647.306946,798.865295 
	C649.999268,798.629333 651.636963,797.828552 652.407715,794.667786 
	C653.911377,788.501282 657.578430,786.072754 663.473022,785.884216 
	C667.803345,785.745789 670.492676,787.421448 670.717957,792.290649 
	C663.039124,793.749268 660.229309,796.950867 659.878174,804.589478 
	C654.263672,805.581055 648.649170,806.572632 642.706726,807.605469 
	C640.214600,807.273132 638.050476,806.899719 635.228394,806.412720 
	C635.434082,804.686340 635.667419,802.727722 635.927979,800.373413 
z"/>
<path fill="#979B9D" opacity="1.000000" stroke="none" 
	d="
M208.995743,839.929749 
	C204.312271,840.772949 199.628784,841.616089 194.612091,842.492065 
	C191.382339,842.289917 188.485764,842.054871 185.147110,841.783936 
	C185.147110,839.887390 185.147110,837.987366 185.168350,835.652527 
	C190.275604,834.730408 195.361618,834.242981 200.743011,833.727234 
	C202.206680,827.017944 204.961548,821.377502 213.014923,821.140503 
	C217.280136,821.015015 219.815933,823.211182 220.453094,827.646362 
	C212.667191,829.273865 210.326187,831.792908 208.995743,839.929749 
z"/>
<path fill="#9F9C99" opacity="1.000000" stroke="none" 
	d="
M630.250305,850.226440 
	C644.637817,853.930725 656.388367,848.528931 667.613403,837.973450 
	C669.218811,841.343750 670.502625,844.038818 671.901001,847.106079 
	C664.789551,854.115906 656.562744,858.296753 646.471497,858.068848 
	C639.971497,857.921936 634.462524,855.776855 630.250305,850.226440 
z"/>
<path fill="#9A9C9C" opacity="1.000000" stroke="none" 
	d="
M180.203018,886.143066 
	C192.600433,888.846252 203.234604,885.138306 212.920456,877.182861 
	C217.636215,873.309570 218.273788,873.835022 221.119324,882.533325 
	C212.932312,891.004211 203.242416,895.528320 191.628296,892.872681 
	C187.576538,891.946228 184.060577,888.676636 180.203018,886.143066 
z"/>
<path fill="#9C9A99" opacity="1.000000" stroke="none" 
	d="
M814.141174,836.316345 
	C823.976318,835.434265 833.921997,834.831482 843.872803,834.333496 
	C847.044006,834.174744 848.199890,832.487061 848.208801,829.147949 
	C850.961243,828.859070 853.606201,828.982666 856.901184,829.136658 
	C856.510437,832.491760 856.287781,835.730042 855.659790,838.887695 
	C855.497681,839.703003 854.107239,840.786743 853.205872,840.863464 
	C843.644714,841.677063 834.051575,842.929871 824.505005,842.670349 
	C821.035767,842.576050 817.667847,838.756287 814.141174,836.316345 
z"/>
<path fill="#9C9A98" opacity="1.000000" stroke="none" 
	d="
M553.475708,798.839844 
	C552.188416,802.585510 550.686584,806.000549 549.184814,809.415588 
	C548.875732,809.342041 548.566589,809.268494 548.257446,809.194946 
	C545.524536,792.743042 542.791626,776.291199 540.090576,759.426819 
	C542.091919,759.014282 544.061401,759.014282 546.497864,759.014282 
	C548.764038,772.247864 551.012634,785.378540 553.475708,798.839844 
z"/>
<path fill="#9C9B9A" opacity="1.000000" stroke="none" 
	d="
M768.669312,789.288513 
	C773.204407,788.828003 777.739502,788.367493 782.686829,787.865112 
	C783.401428,783.826050 784.103088,779.860168 784.917969,775.519836 
	C792.956909,777.293152 792.956909,777.293152 792.012024,785.380676 
	C790.972595,794.277466 790.974365,794.290161 782.395081,795.498718 
	C778.549011,796.040527 774.694153,796.519836 770.653809,797.409912 
	C770.110657,797.716064 769.756958,797.639709 769.307434,796.954346 
	C769.030884,793.993042 768.850098,791.640808 768.669312,789.288513 
z"/>
<path fill="#9A9C9C" opacity="1.000000" stroke="none" 
	d="
M318.317566,825.096130 
	C321.758026,824.705872 325.191071,824.115784 328.641266,823.987732 
	C331.470520,823.882812 332.877747,822.961182 333.021118,819.958679 
	C333.154388,817.167969 333.768799,814.400330 334.341797,811.289551 
	C337.052002,811.562622 339.591827,812.168701 342.557892,812.876465 
	C341.883881,818.095520 341.526611,823.004150 340.451691,827.750244 
	C340.165955,829.012024 337.764679,830.438843 336.184631,830.646118 
	C330.789337,831.353760 325.327271,831.551880 319.400330,831.549377 
	C318.712555,829.135010 318.515076,827.115540 318.317566,825.096130 
z"/>
<path fill="#FBF7F4" opacity="1.000000" stroke="none" 
	d="
M902.450439,818.514832 
	C901.853943,813.572571 901.554993,808.535034 901.228333,803.031738 
	C910.281982,802.310059 918.201477,801.678772 926.567017,801.100342 
	C927.015930,801.490784 927.018677,801.828369 927.020935,802.419373 
	C925.717163,802.807678 924.414490,803.052307 923.110657,803.058655 
	C917.077698,803.087769 911.760742,803.553345 909.613403,811.002869 
	C908.779785,813.894531 905.120239,815.971558 902.450439,818.514832 
z"/>
<path fill="#9C9A98" opacity="1.000000" stroke="none" 
	d="
M853.013550,760.537476 
	C850.263489,761.337402 847.524048,761.726685 843.840576,762.250061 
	C844.605896,756.908447 845.269531,752.276794 846.036987,747.234497 
	C848.864136,746.568420 851.587402,746.313110 854.924194,746.000244 
	C854.232117,751.145386 853.628113,755.636108 853.013550,760.537476 
z"/>
<path fill="#999C9D" opacity="1.000000" stroke="none" 
	d="
M93.135437,800.535400 
	C98.890854,799.655396 104.633041,799.175842 110.817924,798.659302 
	C110.466530,801.402954 110.218857,803.336670 109.886215,805.675781 
	C104.203110,806.478699 98.604988,806.876221 92.586662,807.303650 
	C92.798958,804.779480 92.960587,802.857666 93.135437,800.535400 
z"/>
<path fill="#9F9C99" opacity="1.000000" stroke="none" 
	d="
M727.897217,813.450195 
	C733.678406,814.390381 739.617371,815.307556 745.265625,817.127136 
	C747.821655,817.950623 749.800110,820.567078 752.045898,822.738953 
	C745.864685,821.573730 739.594116,820.302368 733.536987,818.363892 
	C731.401489,817.680420 729.788208,815.365356 727.897217,813.450195 
z"/>
<path fill="#F5FAFB" opacity="1.000000" stroke="none" 
	d="
M317.939758,824.988281 
	C318.515076,827.115540 318.712555,829.135010 318.954224,831.586975 
	C318.998444,832.019531 319.008606,832.413269 319.009247,832.610168 
	C314.528381,832.039429 310.046906,831.271790 305.271118,829.883911 
	C305.199921,825.351013 306.857544,822.540894 310.896484,821.560913 
	C310.696045,827.531311 315.218719,824.017700 317.939758,824.988281 
z"/>
<path fill="#999C9D" opacity="1.000000" stroke="none" 
	d="
M277.930420,849.385132 
	C283.586609,850.173523 289.364899,850.881653 294.802826,852.641357 
	C297.485443,853.509399 299.539459,856.319824 301.863403,858.592102 
	C297.331848,857.938721 292.639954,857.412170 288.350708,855.808777 
	C284.634125,854.419373 281.374054,851.808960 277.930420,849.385132 
z"/>
<path fill="#9F9C99" opacity="1.000000" stroke="none" 
	d="
M804.187012,776.872925 
	C805.337219,776.333435 806.454224,776.232849 808.122925,776.082581 
	C807.960510,778.678406 807.819336,780.934387 807.467163,783.491455 
	C806.173706,783.742554 805.091370,783.692444 803.759338,783.630798 
	C803.901550,781.352722 804.027649,779.332275 804.187012,776.872925 
z"/>
<path fill="#9A9C9C" opacity="1.000000" stroke="none" 
	d="
M335.057373,843.685303 
	C334.750854,843.764648 334.455048,843.546387 334.122375,843.031616 
	C334.412994,842.952637 334.740509,843.170166 335.057373,843.685303 
z"/>
<path fill="#9A9C9C" opacity="1.000000" stroke="none" 
	d="
M179.377014,885.312439 
	C179.616821,885.106262 179.869034,885.221375 180.112000,885.678467 
	C179.869659,885.861938 179.631882,885.732971 179.377014,885.312439 
z"/>
<path fill="#9C9A99" opacity="1.000000" stroke="none" 
	d="
M943.092102,765.685547 
	C942.798462,765.766418 942.520386,765.566589 942.203430,765.100403 
	C942.478882,765.024292 942.793335,765.214539 943.092102,765.685547 
z"/>
<path fill="#999C9D" opacity="1.000000" stroke="none" 
	d="
M276.839783,848.413818 
	C277.068848,848.268616 277.433197,848.382690 277.893066,848.773071 
	C277.650818,848.923950 277.312958,848.798523 276.839783,848.413818 
z"/>
<path fill="#9F9C99" opacity="1.000000" stroke="none" 
	d="
M678.576660,847.171997 
	C678.723083,847.415527 678.484131,847.650024 677.999573,847.964233 
	C677.753906,848.044006 677.535645,847.733215 677.491211,847.547791 
	C677.694946,847.295837 677.943115,847.229309 678.576660,847.171997 
z"/>
<path fill="#9C9A98" opacity="1.000000" stroke="none" 
	d="
M785.081543,807.718384 
	C784.741272,807.917236 784.486206,807.736145 784.274780,807.194214 
	C784.512268,807.126831 784.795044,807.295227 785.081543,807.718384 
z"/>
<path fill="#9F9C99" opacity="1.000000" stroke="none" 
	d="
M726.976929,812.578369 
	C727.228760,812.308960 727.512817,812.424866 727.845947,812.907349 
	C727.662781,813.016113 727.367371,812.912781 726.976929,812.578369 
z"/>
<path fill="#9C9B9A" opacity="1.000000" stroke="none" 
	d="
M874.935547,827.471436 
	C875.134949,827.357239 875.447449,827.483093 875.873474,827.843872 
	C875.674194,827.956360 875.361389,827.833862 874.935547,827.471436 
z"/>
<path fill="#989B9C" opacity="1.000000" stroke="none" 
	d="
M251.881104,820.835754 
	C251.672394,820.940063 251.373322,820.808228 250.993469,820.419556 
	C251.205368,820.308350 251.498062,820.453979 251.881104,820.835754 
z"/>
<path fill="#FFFFFF" opacity="1.000000" stroke="none" 
	d="
M343.325165,866.867798 
	C343.137482,866.100769 343.266052,865.140686 343.671112,863.926392 
	C343.845551,864.673096 343.743469,865.673950 343.325165,866.867798 
z"/>
<path fill="#979B9D" opacity="1.000000" stroke="none" 
	d="
M207.285263,869.802063 
	C200.585083,869.191406 197.760345,863.766235 200.675659,856.720886 
	C203.927185,848.863037 210.965408,847.765808 219.101135,846.906006 
	C218.797531,849.660706 218.538666,852.009644 217.796204,854.824341 
	C210.771317,857.917175 207.042496,862.487488 207.285263,869.802063 
z"/>
<path fill="#F5FAFB" opacity="1.000000" stroke="none" 
	d="
M209.433472,839.975342 
	C210.326187,831.792908 212.667191,829.273865 220.445938,828.004272 
	C220.821594,831.432800 220.821594,834.869995 220.821594,838.874390 
	C216.974487,839.277161 213.422852,839.649048 209.433472,839.975342 
z"/>
<path fill="#F5FAFB" opacity="1.000000" stroke="none" 
	d="
M207.630753,869.825317 
	C207.042496,862.487488 210.771317,857.917175 217.642197,855.203064 
	C217.920807,864.013916 215.579208,867.465210 207.630753,869.825317 
z"/>
<path fill="#9C9A98" opacity="1.000000" stroke="none" 
	d="
M657.997864,834.081543 
	C652.062500,834.067749 649.074707,830.168640 650.255066,823.976990 
	C651.811035,815.815063 659.572876,811.048523 669.503174,812.367188 
	C669.304749,814.597961 669.104187,816.853149 668.452393,819.553528 
	C660.725098,822.594360 658.077148,826.322205 657.997864,834.081543 
z"/>
<path fill="#FBF7F4" opacity="1.000000" stroke="none" 
	d="
M660.298950,804.575562 
	C660.229309,796.950867 663.039124,793.749268 670.705566,792.655701 
	C671.113525,796.162048 671.113525,799.729858 671.113525,803.472534 
	C667.302734,803.871887 664.011230,804.216736 660.298950,804.575562 
z"/>
<path fill="#FCFAF8" opacity="1.000000" stroke="none" 
	d="
M658.379395,834.126404 
	C658.077148,826.322205 660.725098,822.594360 668.348145,819.960083 
	C668.322083,826.719788 666.593262,832.572998 658.379395,834.126404 
z"/>
<path fill="#9C9A98" opacity="1.000000" stroke="none" 
	d="
M904.979675,787.561218 
	C901.874817,787.767212 898.769958,787.973267 895.122314,788.215271 
	C896.117615,781.179749 897.734680,774.924133 902.045593,770.004395 
	C903.726685,768.085754 907.279053,766.484131 909.608826,766.885681 
	C911.389771,767.192627 912.588257,770.878723 913.671021,773.510864 
	C908.070312,776.993408 906.143677,782.044189 904.979675,787.561218 
z"/>
<path fill="#FCFAF8" opacity="1.000000" stroke="none" 
	d="
M905.391724,787.595215 
	C906.143677,782.044189 908.070312,776.993408 913.640137,773.889648 
	C913.984131,778.056335 913.984131,782.293396 913.984131,786.735840 
	C910.980408,787.063843 908.392090,787.346497 905.391724,787.595215 
z"/>
<path fill="#979B9D" opacity="1.000000" stroke="none" 
	d="
M310.919312,821.221680 
	C306.857544,822.540894 305.199921,825.351013 304.962372,829.654846 
	C297.385834,828.418213 294.541656,822.259827 299.404358,817.339600 
	C301.146790,815.576538 304.622192,813.890747 306.618195,814.484436 
	C308.525116,815.051575 309.536865,818.628540 310.919312,821.221680 
z"/>
<path fill="#9C9A98" opacity="1.000000" stroke="none" 
	d="
M755.771790,794.861389 
	C747.716614,792.545410 745.020386,786.676514 750.011292,781.693665 
	C751.678284,780.029480 755.018188,778.289612 756.756531,778.914001 
	C758.708374,779.615112 759.713196,782.952759 760.764771,785.655090 
	C757.208008,788.187378 755.260986,790.870300 755.771790,794.861389 
z"/>
<path fill="#FFFFFF" opacity="1.000000" stroke="none" 
	d="
M756.193970,794.962036 
	C755.260986,790.870300 757.208008,788.187378 760.732666,786.041931 
	C761.238525,787.023804 761.411133,788.130615 761.642639,789.615479 
	C763.800476,789.475708 765.869507,789.341736 768.303955,789.248169 
	C768.850098,791.640808 769.030884,793.993042 769.185059,796.797485 
	C764.977783,796.520630 760.796936,795.791626 756.193970,794.962036 
z"/>
</svg>